# xmcd CD database file
#
# Track frame offsets:
#	150
#	13344
#	35483
#	57720
#	64388
#	81976
#	97193
#	119675
#	137245
#	150329
#	171998
#	187335
#	203226
#
# Disc length: 2877 seconds
#
# Revision: 0
# Processed by: cddbd v1.5.2PL0 Copyright (c) Steve Scherf et al.
# Submitted via: CDex 1.51
#
DISCID=ce0b3b0d
DTITLE=Rose Moore - Spirit Of Silence
DYEAR=2002
DGENRE=New Age
TTITLE0=Introduction To Rose's Music
TTITLE1=O Spirit Tree
TTITLE2=Nanita
TTITLE3=Master Of Silence
TTITLE4=O Ecclesia - Zu Ni A
TTITLE5=Blessed By The Angels
TTITLE6=Softly The Wind
TTITLE7=Dela Dela
TTITLE8=Light After Darkness
TTITLE9=Why - E Si Do Maya E Si
TTITLE10=River Run
TTITLE11=Heaven and Sky
TTITLE12=Outro
EXTD=YEAR: 2002
EXTT0=
EXTT1=
EXTT2=
EXTT3=
EXTT4=
EXTT5=
EXTT6=
EXTT7=
EXTT8=
EXTT9=
EXTT10=
EXTT11=
EXTT12=
PLAYORDER=
